<svg id="Layer_1" data-name="Layer 1" xmlns="http://www.w3.org/2000/svg" viewBox="0 0 489 304"><defs><style>.cls-1{fill:#f0353d;}.cls-2{fill:#fbb239;}.cls-3{fill:#f48427;}.cls-4{fill:#d32633;}</style></defs><title>Artboard 3</title><polygon class="cls-1" points="489 0 408 0 314 164 220 0 139 0 259.121 208.668 259.12 208.67 314 304 368.88 208.67 368.879 208.668 489 0"/><polygon class="cls-2" points="189.55 138.62 175 164 81 0 0 0 175 304 229.88 208.67 189.55 138.62"/><polygon class="cls-3" points="209.75 173.71 175 234.08 60.62 35.39 81 0 175 164 189.55 138.62 209.75 173.71"/><polygon class="cls-4" points="408 0 314 164 220 0 199.62 35.39 314 234.08 428.38 35.39 408 0"/></svg>