<svg id="Layer_1" data-name="Layer 1" xmlns="http://www.w3.org/2000/svg" viewBox="0 0 490 304"><defs><style>.cls-1{fill:#f0353d;}.cls-2{fill:#dd2f48;}.cls-3{fill:#fbb239;}.cls-4{fill:#ef9830;}.cls-5{fill:#ea3442;}</style></defs><title>w-logo-7</title><polygon class="cls-1" points="395 165.029 490 0 410 0 355 95.543 395 165.029"/><polygon class="cls-2" points="315 165.029 355 234.514 395 165.029 355 95.543 315 165.029"/><polygon class="cls-1" points="315 165.029 245 43.429 205 112.914 315 304 355 234.514 315 165.029"/><polygon class="cls-3" points="230 208.46 190 138.97 135 234.514 175 304 230 208.46"/><polygon class="cls-3" points="80 0 0 0 95 165.029 135 95.543 80 0"/><polygon class="cls-4" points="95 165.029 135 234.514 175 165.029 135 95.543 95 165.029"/><polygon class="cls-1" points="140 0 165 43.429 190 0 140 0"/><polygon class="cls-5" points="205 112.914 205 112.914 245 43.429 245 43.429 205 112.914"/><polygon class="cls-2" points="220 0 190 0 165 43.429 205 112.914 245 43.429 220 0"/></svg>