<svg id="Layer_1" data-name="Layer 1" xmlns="http://www.w3.org/2000/svg" viewBox="0 0 490 304"><defs><style>.cls-1{fill:#dd2f48;}.cls-2{fill:#f0353d;}.cls-3{fill:#ef9830;}.cls-4{fill:#fbb239;}</style></defs><title>w-logo-2</title><polygon class="cls-1" points="195 82 235 12 275 82 195 82"/><polygon class="cls-2" points="155 12 195 82 235 12 155 12"/><polygon class="cls-1" points="235 152 275 82 315 152 235 152"/><polygon class="cls-2" points="195 82 235 152 275 82 195 82"/><polygon class="cls-1" points="275 222 315 152 355 222 275 222"/><polygon class="cls-2" points="235 152 275 222 315 152 235 152"/><polygon class="cls-1" points="435 82 395 12 355 82 435 82"/><polygon class="cls-2" points="475 12 435 82 395 12 475 12"/><polygon class="cls-1" points="395 152 355 82 315 152 395 152"/><polygon class="cls-2" points="435 82 395 152 355 82 435 82"/><polygon class="cls-2" points="395 152 355 222 315 152 395 152"/><polygon class="cls-2" points="275 222 315 292 355 222 275 222"/><polygon class="cls-3" points="55 82 95 12 135 82 55 82"/><polygon class="cls-4" points="15 12 55 82 95 12 15 12"/><polygon class="cls-3" points="95 152 135 82 175 152 95 152"/><polygon class="cls-4" points="55 82 95 152 135 82 55 82"/><polygon class="cls-3" points="135 222 175 152 215 222 135 222"/><polygon class="cls-4" points="95 152 135 222 175 152 95 152"/><polygon class="cls-3" points="205 152 175 152 190 125.75 205 152"/><polygon class="cls-4" points="230 195.75 215 222 175 152 205 152 230 195.75"/><polygon class="cls-4" points="135 222 175 292 215 222 135 222"/></svg>