<svg id="Layer_1" data-name="Layer 1" xmlns="http://www.w3.org/2000/svg" viewBox="0 0 490 304"><defs><style>.cls-1{fill:#f0353d;}.cls-2{fill:#dd2f48;}.cls-3{fill:#f9a23a;}.cls-4{fill:#ef9830;}.cls-5{fill:#fbb239;}</style></defs><title>w-logo-5</title><polygon class="cls-1" points="395 165.029 490 0 410 0 355 95.543 395 165.029"/><polygon class="cls-2" points="205 112.914 245 182.4 285 112.914 245 43.429 205 112.914"/><polygon class="cls-1" points="315 165.029 355 234.514 395 165.029 355 95.543 315 165.029"/><polygon class="cls-1" points="315 165.029 315 165.03 315 165.029 285 112.914 245 182.4 315 304 355 234.514 315 165.029"/><polygon class="cls-1" points="245 43.429 220 0 140 0 205 112.914 245 43.429"/><polygon class="cls-3" points="105 43.429 80 0 0 0 65 112.914 105 43.429"/><polygon class="cls-4" points="105 43.429 65 112.914 135 234.514 175 165.029 105 43.429"/><polygon class="cls-5" points="230 208.46 190 138.97 135 234.514 175 304 230 208.46"/><polygon class="cls-5" points="80 0 65 112.914 175 165.029 80 0"/><polygon class="cls-1" points="285 112.914 245 182.4 220 0 285 112.914"/><polygon class="cls-2" points="285 112.914 315 304 355 234.514 285 112.914"/><polygon class="cls-2" points="395 165.029 355 95.543 410 0 395 165.029"/><polygon class="cls-4" points="175 304 230 208.46 190 138.97 175 304"/><polygon class="cls-4" points="0 0 65 112.914 80 0 0 0"/></svg>